<?xml version="1.0" encoding="UTF-8" standalone="no"?>
<!DOCTYPE svg PUBLIC "-//W3C//DTD SVG 1.1//EN" "http://www.w3.org/Graphics/SVG/1.1/DTD/svg11.dtd">
<svg width="100%" height="100%" viewBox="0 0 24 24" version="1.1" xmlns="http://www.w3.org/2000/svg" xmlns:xlink="http://www.w3.org/1999/xlink" xml:space="preserve" xmlns:serif="http://www.serif.com/" style="fill-rule:evenodd;clip-rule:evenodd;stroke-linejoin:round;stroke-miterlimit:2;">
    <g transform="matrix(0.09375,0,0,0.09375,0,1.5687)">
        <path d="M255.876,51.662C254.737,76.63 237.331,110.819 203.667,154.212C168.861,199.539 139.413,222.201 115.324,222.201C100.406,222.201 87.773,208.402 77.461,180.795C70.569,155.489 63.686,130.186 56.797,104.88C49.134,77.288 40.919,63.474 32.136,63.474C30.221,63.474 23.519,67.512 12.045,75.555L0,60.008C12.634,48.885 25.098,37.764 37.361,26.628C54.211,12.039 66.86,4.366 75.29,3.59C95.215,1.673 107.477,15.318 112.08,44.528C117.054,76.042 120.495,95.644 122.43,103.316C128.172,129.461 134.49,142.517 141.395,142.517C146.753,142.517 154.802,134.039 165.533,117.081C176.255,100.118 181.997,87.213 182.772,78.348C184.298,63.71 178.553,56.373 165.533,56.373C159.405,56.373 153.086,57.786 146.587,60.579C159.166,19.289 183.205,-0.764 218.687,0.38C244.991,1.153 257.392,18.247 255.876,51.662" style="fill:rgb(50,184,232);fill-rule:nonzero;"/>
    </g>
</svg>
